<?xml version="1.0" encoding="UTF-8" standalone="no"?>
<svg
   xmlns:ns="http://ns.adobe.com/SaveForWeb/1.0/"
   xmlns:dc="http://purl.org/dc/elements/1.1/"
   xmlns:cc="http://creativecommons.org/ns#"
   xmlns:rdf="http://www.w3.org/1999/02/22-rdf-syntax-ns#"
   xmlns:svg="http://www.w3.org/2000/svg"
   xmlns="http://www.w3.org/2000/svg"
   xmlns:sodipodi="http://sodipodi.sourceforge.net/DTD/sodipodi-0.dtd"
   xmlns:inkscape="http://www.inkscape.org/namespaces/inkscape"
   version="1.1"
   x="0px"
   y="0px"
   viewBox="0 0 77.32 71.125"
   enable-background="new 0 0 100 100"
   xml:space="preserve"
   id="svg102"
   sodipodi:docname="pluginIcon_dark.svg"
   width="77.32"
   height="71.125"
   inkscape:version="0.92.3 (2405546, 2018-03-11)"><defs
     id="defs106" /><sodipodi:namedview
     pagecolor="#ffffff"
     bordercolor="#666666"
     borderopacity="1"
     objecttolerance="10"
     gridtolerance="10"
     guidetolerance="10"
     inkscape:pageopacity="0"
     inkscape:pageshadow="2"
     inkscape:window-width="3840"
     inkscape:window-height="2035"
     id="namedview104"
     showgrid="false"
     units="mm"
     fit-margin-top="0"
     fit-margin-left="0"
     fit-margin-right="0"
     fit-margin-bottom="0"
     inkscape:zoom="10.680141"
     inkscape:cx="15.730974"
     inkscape:cy="6.0438908"
     inkscape:window-x="3827"
     inkscape:window-y="-13"
     inkscape:window-maximized="1"
     inkscape:current-layer="svg102" /><metadata
     id="metadata2"><ns:sfw><ns:slices /><ns:sliceSourceBounds
         x="266.84"
         y="365.563"
         height="102.628"
         width="201.82"
         bottomLeftOrigin="true" /></ns:sfw><rdf:RDF><cc:Work
         rdf:about=""><dc:format>image/svg+xml</dc:format><dc:type
           rdf:resource="http://purl.org/dc/dcmitype/StillImage" /><dc:title /></cc:Work></rdf:RDF></metadata><g
     id="g12"
     transform="translate(-11.34,-9.813)"
     style="fill:#f9f9f9"><g
       id="g10"
       style="fill:#f9f9f9"><line
         stroke-miterlimit="10"
         x1="49.813999"
         y1="28.188"
         x2="49.813999"
         y2="13.4"
         id="line4"
         style="fill:#f9f9f9;stroke:#777777;stroke-miterlimit:10" /><g
         id="g8"
         style="fill:#f9f9f9"><polygon
           points="47.32,14.13 52.307,14.13 49.814,9.813 "
           id="polygon6"
           style="fill:#f9f9f9" /></g></g></g><g
     id="g22"
     transform="translate(-11.34,-9.813)"
     style="fill:#f9f9f9"><g
       id="g20"
       style="fill:#f9f9f9"><line
         stroke-miterlimit="10"
         x1="85.553001"
         y1="75.019997"
         x2="73.035004"
         y2="67.791"
         id="line14"
         style="fill:#f9f9f9;stroke:#777777;stroke-miterlimit:10" /><g
         id="g18"
         style="fill:#f9f9f9"><polygon
           points="83.675,76.813 86.168,72.495 88.66,76.813 "
           id="polygon16"
           style="fill:#f9f9f9" /></g></g></g><g
     id="g32"
     transform="translate(-11.34,-9.813)"
     style="fill:#f9f9f9"><g
       id="g30"
       style="fill:#f9f9f9"><line
         stroke-miterlimit="10"
         x1="14.447"
         y1="75.019997"
         x2="26.539"
         y2="68.138"
         id="line24"
         style="fill:#f9f9f9;stroke:#777777;stroke-miterlimit:10" /><g
         id="g28"
         style="fill:#f9f9f9"><polygon
           points="13.833,72.495 16.325,76.813 11.34,76.813 "
           id="polygon26"
           style="fill:#f9f9f9" /></g></g></g><path
     d="M 49.299,25.45"
     id="path34"
     inkscape:connector-curvature="0"
     style="fill:#f9f9f9;stroke:#ffffff;stroke-width:0.5;stroke-linecap:round;stroke-linejoin:round" /><path
     d="M 27.648,62.951"
     id="path36"
     inkscape:connector-curvature="0"
     style="fill:#f9f9f9;stroke:#ffffff;stroke-width:0.5;stroke-linecap:round;stroke-linejoin:round" /><path
     d="M 27.648,25.45"
     id="path38"
     inkscape:connector-curvature="0"
     style="fill:#f9f9f9;stroke:#ffffff;stroke-width:0.5;stroke-linecap:round;stroke-linejoin:round" /><path
     d="M 60.125,31.7"
     id="path40"
     inkscape:connector-curvature="0"
     style="fill:#f9f9f9;stroke:#ffffff;stroke-linecap:round;stroke-linejoin:round" /><path
     d="M 38.474,44.201"
     id="path42"
     inkscape:connector-curvature="0"
     style="fill:#f9f9f9;stroke:#ffffff;stroke-linecap:round;stroke-linejoin:round" /><line
     x1="38.473999"
     y1="69.200996"
     x2="38.473999"
     y2="44.201"
     id="line44"
     style="fill:#f9f9f9;stroke:#ffffff;stroke-linecap:round;stroke-linejoin:round" /><g
     id="g48"
     transform="translate(-11.34,-9.813)"
     style="fill:#f9f9f9"><polygon
       stroke-miterlimit="10"
       points="26.539,64.138 30.539,64.138 30.539,68.138 26.539,68.138 "
       id="polygon46"
       style="fill:#f9f9f9;stroke:#777777;stroke-miterlimit:10" /></g><g
     enable-background="new    "
     id="g52"
     transform="translate(-11.34,-9.813)"
     style="fill:#f9f9f9"><polygon
       stroke-miterlimit="10"
       points="69.035,64.138 73.035,64.138 73.035,68.138 69.035,68.138 "
       id="polygon50"
       style="fill:#f9f9f9;stroke:#777777;stroke-miterlimit:10" /></g><g
     enable-background="new    "
     id="g56"
     transform="translate(-11.34,-9.813)"
     style="fill:#f9f9f9"><polygon
       stroke-miterlimit="10"
       points="26.539,40.188 30.539,40.188 30.539,44.188 26.539,44.188 "
       id="polygon54"
       style="fill:#f9f9f9;stroke:#777777;stroke-miterlimit:10" /></g><g
     enable-background="new    "
     id="g60"
     transform="translate(-11.34,-9.813)"
     style="fill:#f9f9f9"><polygon
       stroke-miterlimit="10"
       points="69.035,40.188 73.035,40.188 73.035,44.188 69.035,44.188 "
       id="polygon58"
       style="fill:#f9f9f9;stroke:#777777;stroke-miterlimit:10" /></g><g
     enable-background="new    "
     id="g64"
     transform="translate(-11.34,-9.813)"
     style="fill:#f9f9f9"><polygon
       stroke-miterlimit="10"
       points="47.814,28.188 51.814,28.188 51.814,32.188 47.814,32.188 "
       id="polygon62"
       style="fill:#f9f9f9;stroke:#777777;stroke-miterlimit:10" /></g><g
     enable-background="new    "
     id="g68"
     transform="translate(-11.34,-9.813)"
     style="fill:#f9f9f9"><polygon
       stroke-miterlimit="10"
       points="47.814,51.438 51.814,51.438 51.814,55.438 47.814,55.438 "
       id="polygon66"
       style="fill:#f9f9f9;stroke:#777777;stroke-miterlimit:10" /></g><g
     enable-background="new    "
     id="g72"
     transform="translate(-11.34,-9.813)"
     style="fill:#f9f9f9"><polygon
       stroke-miterlimit="10"
       points="47.814,76.438 51.814,76.438 51.814,80.438 47.814,80.438 "
       id="polygon70"
       style="fill:#f9f9f9;stroke:#777777;stroke-miterlimit:10" /></g><polygon
     points="39.209,47.292 30.542,42.305 30.539,40.72 30.539,40.72 39.209,35.708 49.291,41.513 "
     id="polygon74"
     transform="translate(-11.34,-9.813)"
     style="fill:#f9f9f9" /><polygon
     points="51.815,30.706 59.875,35.347 49.792,41.125 39.75,35.347 47.814,30.686 47.814,32.188 51.814,32.188 "
     id="polygon76"
     transform="translate(-11.34,-9.813)"
     style="fill:#f9f9f9" /><polyline
     points="69.035,42.313 60.37,47.279 50.328,41.5 60.37,35.696 69.037,40.686 "
     id="polyline78"
     transform="translate(-11.34,-9.813)"
     style="fill:#f9f9f9" /><polygon
     points="51.814,52.248 51.814,51.438 47.814,51.438 47.819,52.272 39.75,47.628 49.792,41.824 59.875,47.628 "
     id="polygon80"
     transform="translate(-11.34,-9.813)"
     style="fill:#f9f9f9" /><polyline
     points="70.965,44.187 70.933,53.987 60.907,59.794 60.901,48.196 69.034,43.485 "
     id="polyline82"
     transform="translate(-11.34,-9.813)"
     style="fill:#f9f9f9" /><polygon
     points="60.901,60.404 70.97,54.572 70.939,64.138 69.031,64.138 69.035,67.295 60.907,72.002 "
     id="polygon84"
     transform="translate(-11.34,-9.813)"
     style="fill:#f9f9f9" /><polygon
     points="60.36,48.479 60.323,60.102 50.298,65.908 50.293,55.437 51.814,55.438 51.814,53.429 "
     id="polygon86"
     transform="translate(-11.34,-9.813)"
     style="fill:#f9f9f9" /><polygon
     points="60.344,72.311 51.814,77.251 51.814,76.438 50.318,76.438 50.313,66.52 60.381,60.688 "
     id="polygon88"
     transform="translate(-11.34,-9.813)"
     style="fill:#f9f9f9" /><polygon
     points="30.539,44.188 28.643,44.188 28.674,54.015 38.699,59.821 38.705,48.223 30.543,43.496 "
     id="polygon90"
     transform="translate(-11.34,-9.813)"
     style="fill:#f9f9f9" /><polygon
     points="28.667,64.138 30.539,64.138 30.539,67.303 38.699,72.029 38.705,60.432 28.637,54.6 "
     id="polygon92"
     transform="translate(-11.34,-9.813)"
     style="fill:#f9f9f9" /><polygon
     points="39.283,60.129 49.309,65.936 49.314,55.438 47.814,55.438 47.815,53.469 39.246,48.506 "
     id="polygon94"
     transform="translate(-11.34,-9.813)"
     style="fill:#f9f9f9" /><polygon
     points="39.263,72.338 47.813,77.291 47.814,76.438 49.288,76.438 49.294,66.547 39.226,60.715 "
     id="polygon96"
     transform="translate(-11.34,-9.813)"
     style="fill:#f9f9f9" /></svg>